<svg xmlns="http://www.w3.org/2000/svg" xmlns:xlink="http://www.w3.org/1999/xlink" width="128" zoomAndPan="magnify" viewBox="0 0 96 95.999999" height="128" preserveAspectRatio="xMidYMid meet" version="1.0"><path fill="#ffffff" d="M 94.328125 73.308594 C 90.933594 74.171875 88.835938 73.34375 86.949219 70.515625 C 82.71875 64.175781 78.050781 58.128906 73.546875 51.972656 C 72.964844 51.175781 72.363281 50.394531 71.609375 49.402344 C 66.277344 56.597656 60.953125 63.449219 55.957031 70.574219 C 54.167969 73.121094 52.292969 74.230469 48.957031 73.328125 L 69.003906 46.425781 L 50.339844 22.125 C 53.550781 21.5 55.769531 21.820312 57.734375 24.695312 C 62.078125 31.039062 66.867188 37.078125 71.640625 43.46875 C 76.441406 37.101562 81.171875 31.054688 85.640625 24.769531 C 87.433594 22.222656 89.363281 21.253906 92.585938 22.191406 C 90.144531 25.429688 87.753906 28.617188 85.347656 31.785156 C 82.101562 36.050781 78.914062 40.371094 75.546875 44.546875 C 74.351562 46.035156 74.542969 47.003906 75.617188 48.414062 C 81.839844 56.597656 87.992188 64.863281 94.328125 73.308594 Z M 0.992188 45.976562 C 1.527344 43.289062 1.882812 40.546875 2.628906 37.914062 C 7.097656 21.953125 25.417969 15.316406 38 25.207031 C 45.375 31.007812 47.207031 39.1875 46.839844 48.40625 L 5.289062 48.40625 C 4.660156 64.945312 16.570312 74.929688 31.746094 69.835938 C 37.070312 68.050781 40.207031 63.878906 41.777344 58.667969 C 42.574219 56.054688 43.890625 55.644531 46.347656 56.386719 C 45.089844 62.910156 42.238281 68.363281 36.28125 71.773438 C 27.34375 76.882812 14.589844 75.230469 7.878906 68.132812 C 3.917969 63.960938 2.234375 58.769531 1.488281 53.164062 C 1.378906 52.269531 1.148438 51.390625 0.96875 50.503906 C 0.984375 48.996094 0.992188 47.488281 0.992188 45.976562 Z M 5.363281 44.867188 L 42.917969 44.867188 C 42.671875 32.90625 35.222656 24.410156 25.042969 24.335938 C 13.875 24.246094 5.847656 32.542969 5.363281 44.867188 Z M 5.363281 44.867188 " fill-opacity="1" fill-rule="nonzero"/></svg>