<svg xmlns="http://www.w3.org/2000/svg" xmlns:xlink="http://www.w3.org/1999/xlink" width="128" zoomAndPan="magnify" viewBox="0 0 96 95.999999" height="128" preserveAspectRatio="xMidYMid meet" version="1.0"><path fill="#ffffff" d="M 67.246094 18.613281 L 67.125 18.421875 L 67.121094 18.425781 C 67.113281 18.429688 67.109375 18.433594 67.101562 18.4375 L 67.023438 18.484375 C 66.554688 18.773438 66.078125 19.054688 65.597656 19.328125 C 64.332031 20.042969 63.035156 20.703125 61.710938 21.308594 C 58.566406 22.75 54.585938 24.152344 51.179688 24.078125 C 49.457031 24.039062 48.027344 23.898438 46.679688 23.753906 L 46.460938 23.730469 C 45.195312 23.597656 43.988281 23.472656 42.679688 23.445312 C 39.898438 23.386719 36.664062 23.777344 31.339844 25.472656 C 25.96875 27.1875 22.53125 30.667969 20.054688 33.984375 C 19.09375 35.273438 18.273438 36.539062 17.546875 37.667969 C 17.339844 37.992188 17.136719 38.300781 16.941406 38.597656 C 16.058594 39.945312 15.316406 40.976562 14.585938 41.507812 C 13.042969 42.625 9.859375 45 7.0625 47.09375 C 5.84375 48.007812 4.625 48.921875 3.40625 49.835938 L 2.273438 50.691406 L 1.960938 50.925781 L 1.878906 50.984375 L 1.859375 51 L 1.851562 51.007812 L 1.953125 51.140625 L 1.851562 51.007812 L 1.742188 51.089844 L 1.765625 51.222656 L 1.785156 51.351562 L 1.828125 51.609375 L 2.078125 51.53125 L 9.921875 49.03125 C 9.625 49.347656 9.222656 49.789062 8.714844 50.375 C 7.503906 51.769531 5.683594 53.984375 3.222656 57.292969 C 3.203125 57.277344 3.183594 57.261719 3.167969 57.242188 L 2.671875 56.785156 L 2.796875 57.449219 L 2.8125 57.542969 L 2.835938 57.578125 L 2.890625 57.542969 L 2.835938 57.578125 L 2.839844 57.582031 L 2.839844 57.585938 L 2.847656 57.597656 L 2.886719 57.652344 C 3.097656 57.960938 3.316406 58.257812 3.546875 58.550781 C 4.117188 59.28125 4.734375 59.960938 5.410156 60.59375 C 6.179688 61.308594 7.082031 61.996094 8.058594 62.433594 C 9.035156 62.867188 10.097656 63.058594 11.164062 62.75 C 11.554688 62.636719 11.984375 62.457031 12.445312 62.226562 C 14.058594 63.113281 16.148438 63.976562 18.460938 64.21875 L 19.023438 64.277344 L 18.652344 63.847656 L 18.648438 63.84375 C 18.644531 63.839844 18.640625 63.832031 18.636719 63.828125 L 18.585938 63.769531 C 18.289062 63.410156 17.996094 63.050781 17.710938 62.683594 C 17.074219 61.871094 16.476562 61.027344 15.910156 60.160156 L 16.535156 59.753906 L 19.753906 60.933594 L 20.097656 61.0625 L 20.054688 60.699219 L 19.726562 57.910156 L 22.675781 58.996094 L 23.03125 59.125 L 22.976562 58.75 L 22.59375 56.074219 C 22.957031 55.886719 23.316406 55.710938 23.679688 55.542969 L 23.777344 55.5 L 23.804688 55.398438 L 27.175781 42.636719 L 40.539062 33.523438 L 39.695312 35.644531 C 38.289062 39.101562 36.269531 41.234375 34.605469 42.5 C 33.945312 43.007812 33.242188 43.445312 32.496094 43.8125 C 32.234375 43.9375 31.972656 44.050781 31.699219 44.148438 L 31.660156 44.164062 L 31.65625 44.164062 C 31.652344 44.164062 31.652344 44.164062 31.648438 44.167969 L 31.640625 44.167969 L 31.632812 44.171875 L 29.402344 45.019531 L 29.347656 45.039062 L 29.308594 45.082031 L 29.050781 45.386719 C 28.355469 46.199219 27.820312 46.828125 27.398438 47.925781 C 26.933594 49.148438 26.617188 50.941406 26.332031 54.234375 L 26.304688 54.546875 L 26.609375 54.472656 C 27.925781 54.140625 29.160156 54.066406 30.269531 54.367188 C 33.1875 55.152344 35.164062 57.308594 36.210938 59.523438 C 36.730469 60.628906 37.019531 61.742188 37.078125 62.695312 C 37.136719 63.65625 36.964844 64.414062 36.613281 64.851562 C 36.230469 65.324219 35.3125 66.140625 34.125 67.128906 L 31.546875 67.128906 L 31.546875 67.347656 L 31.511719 69.214844 L 31.410156 69.296875 L 28.789062 69.296875 L 28.785156 69.515625 L 28.757812 71.332031 L 28.445312 71.566406 L 28.253906 71.710938 C 27.164062 71.710938 25.917969 71.246094 24.921875 70.757812 C 24.367188 70.488281 23.828125 70.183594 23.3125 69.851562 C 23.277344 69.832031 23.246094 69.808594 23.214844 69.789062 L 23.191406 69.773438 L 23.183594 69.765625 L 22.832031 69.523438 L 22.832031 69.953125 C 22.832031 70.925781 23.234375 72.132812 23.617188 73.078125 C 23.835938 73.601562 24.070312 74.117188 24.328125 74.621094 L 24.332031 74.625 L 24.238281 74.691406 L 24.4375 74.820312 L 24.5 74.9375 L 24.566406 74.90625 L 24.585938 74.917969 L 24.792969 75.050781 C 25.867188 75.714844 26.988281 76.289062 28.152344 76.777344 C 29.1875 77.203125 30.351562 77.585938 31.511719 77.761719 C 32.671875 77.9375 33.839844 77.914062 34.867188 77.507812 C 35.761719 77.15625 36.996094 76.445312 38.453125 75.535156 C 39.457031 74.90625 40.570312 74.179688 41.765625 73.40625 C 42.3125 73.046875 42.875 72.683594 43.449219 72.308594 C 47.113281 69.941406 51.296875 67.332031 55.171875 65.65625 L 78.742188 59.445312 L 78.851562 59.417969 L 78.894531 59.308594 L 82.003906 51.25 L 82.164062 50.839844 L 81.738281 50.953125 L 64.042969 55.613281 L 64.042969 48.839844 L 84.96875 43.328125 L 85.078125 43.296875 L 85.121094 43.191406 L 88.230469 35.132812 L 88.386719 34.722656 L 87.964844 34.835938 L 64.050781 41.136719 L 64.050781 34.363281 L 91.1875 27.210938 L 91.296875 27.183594 L 91.339844 27.074219 L 94.238281 19.570312 L 94.261719 19.503906 L 94.242188 19.433594 L 94.117188 18.964844 L 94.058594 18.75 L 93.84375 18.808594 L 65.753906 26.210938 C 67.050781 24.160156 67.5 22.320312 67.613281 20.957031 C 67.675781 20.21875 67.636719 19.621094 67.585938 19.207031 C 67.558594 19 67.523438 18.796875 67.476562 18.597656 C 67.472656 18.585938 67.46875 18.574219 67.464844 18.5625 L 67.464844 18.550781 L 67.460938 18.550781 L 67.460938 18.546875 Z M 67.246094 18.613281 L 67.125 18.421875 L 67.378906 18.261719 L 67.460938 18.546875 Z M 67.03125 18.675781 Z M 48.492188 42.519531 L 53.753906 41.132812 L 52.082031 45.472656 L 46.820312 46.859375 Z M 51.761719 47.484375 L 50.085938 51.824219 L 44.824219 53.214844 L 46.5 48.871094 Z M 59.316406 45.863281 L 57.644531 50.203125 L 52.382812 51.589844 L 54.054688 47.25 Z M 59.316406 45.863281 " fill-opacity="1" fill-rule="nonzero"/><path fill="#000000" d="M 32.808594 78.089844 C 32.363281 78.085938 31.917969 78.050781 31.476562 77.984375 C 30.4375 77.824219 29.292969 77.488281 28.070312 76.984375 C 26.890625 76.492188 25.757812 75.910156 24.671875 75.238281 L 24.550781 75.164062 L 24.402344 75.234375 L 24.265625 74.976562 L 23.84375 74.695312 L 24.042969 74.554688 L 23.953125 74.367188 C 23.816406 74.09375 23.613281 73.660156 23.410156 73.160156 C 22.878906 71.859375 22.609375 70.777344 22.609375 69.953125 L 22.609375 69.097656 L 23.34375 69.601562 L 23.433594 69.664062 C 23.945312 69.992188 24.472656 70.292969 25.019531 70.558594 C 25.871094 70.972656 27.101562 71.464844 28.183594 71.484375 L 28.238281 71.445312 L 28.3125 71.390625 L 28.535156 71.222656 L 28.570312 69.070312 L 31.292969 69.070312 L 31.328125 66.902344 L 34.042969 66.902344 C 35.300781 65.859375 36.105469 65.125 36.4375 64.710938 C 36.757812 64.316406 36.910156 63.585938 36.855469 62.710938 C 36.796875 61.75 36.496094 60.652344 36.007812 59.621094 C 35.464844 58.460938 34.726562 57.449219 33.789062 56.574219 C 32.761719 55.613281 31.570312 54.949219 30.210938 54.582031 C 29.199219 54.308594 28.039062 54.347656 26.664062 54.691406 L 26.054688 54.84375 L 26.109375 54.214844 C 26.390625 50.972656 26.703125 49.128906 27.191406 47.847656 C 27.625 46.710938 28.179688 46.0625 28.882812 45.238281 L 28.949219 45.160156 L 29.140625 44.9375 L 29.214844 44.847656 L 29.324219 44.804688 L 31.566406 43.957031 L 31.589844 43.949219 L 31.628906 43.9375 C 31.890625 43.839844 32.148438 43.730469 32.398438 43.609375 C 33.132812 43.25 33.820312 42.820312 34.46875 42.320312 C 35.445312 41.574219 36.3125 40.71875 37.070312 39.753906 C 38.03125 38.539062 38.839844 37.140625 39.472656 35.601562 L 39.472656 35.597656 L 39.488281 35.558594 L 40.058594 34.121094 L 27.371094 42.777344 L 24.019531 55.453125 L 23.96875 55.660156 L 23.773438 55.75 C 23.476562 55.886719 23.167969 56.035156 22.839844 56.203125 L 23.308594 59.464844 L 19.996094 58.246094 L 20.363281 61.398438 L 16.566406 60 L 16.222656 60.222656 C 16.75 61.019531 17.304688 61.792969 17.890625 62.542969 C 18.179688 62.917969 18.417969 63.210938 18.566406 63.390625 C 18.648438 63.488281 18.714844 63.566406 18.757812 63.621094 L 18.8125 63.683594 C 18.816406 63.6875 18.816406 63.691406 18.820312 63.691406 L 18.878906 63.75 L 18.878906 63.761719 L 19.5625 64.558594 L 18.4375 64.441406 C 16.480469 64.234375 14.464844 63.574219 12.441406 62.480469 C 12.054688 62.671875 11.65625 62.832031 11.246094 62.957031 L 11.226562 62.964844 C 11.222656 62.964844 11.21875 62.964844 11.21875 62.96875 L 11.195312 62.972656 C 10.1875 63.253906 9.101562 63.140625 7.96875 62.636719 C 7.085938 62.242188 6.175781 61.609375 5.257812 60.757812 C 4.359375 59.910156 3.554688 58.988281 2.839844 57.984375 L 2.773438 57.890625 L 2.769531 57.890625 L 2.652344 57.710938 L 2.613281 57.65625 L 2.613281 57.648438 L 2.597656 57.628906 L 2.574219 57.492188 L 2.324219 56.160156 L 3.191406 56.957031 C 5.671875 53.632812 7.46875 51.46875 8.542969 50.226562 C 8.765625 49.972656 8.980469 49.730469 9.1875 49.503906 L 2.144531 51.742188 L 1.648438 51.902344 L 1.5 50.992188 L 1.828125 50.746094 L 1.972656 50.636719 L 2.5625 50.191406 L 3.273438 49.65625 C 4.132812 49.011719 5.464844 48.011719 6.929688 46.914062 C 9.480469 45.003906 12.855469 42.484375 14.453125 41.324219 C 15.140625 40.828125 15.871094 39.828125 16.753906 38.476562 C 16.949219 38.179688 17.152344 37.867188 17.359375 37.546875 C 18.085938 36.421875 18.910156 35.148438 19.875 33.851562 C 21.355469 31.871094 22.859375 30.269531 24.472656 28.953125 C 26.503906 27.292969 28.769531 26.058594 31.269531 25.261719 C 35.972656 23.761719 39.386719 23.152344 42.683594 23.222656 C 44.003906 23.25 45.210938 23.375 46.484375 23.511719 L 46.703125 23.535156 C 48.171875 23.6875 49.523438 23.820312 51.183594 23.855469 C 52.714844 23.890625 54.5 23.617188 56.480469 23.046875 C 58.078125 22.585938 59.808594 21.933594 61.621094 21.105469 C 62.9375 20.503906 64.226562 19.84375 65.488281 19.132812 C 65.984375 18.851562 66.476562 18.5625 66.960938 18.261719 L 67.015625 18.226562 L 67.507812 17.914062 L 67.742188 18.703125 L 67.730469 18.703125 C 67.753906 18.808594 67.78125 18.972656 67.808594 19.179688 C 67.878906 19.746094 67.890625 20.347656 67.835938 20.976562 C 67.699219 22.617188 67.164062 24.253906 66.234375 25.851562 L 94.21875 18.476562 L 94.5 19.515625 L 94.449219 19.652344 L 91.46875 27.371094 L 91.246094 27.429688 L 64.273438 34.535156 L 64.273438 40.84375 L 88.757812 34.394531 L 88.441406 35.214844 L 85.246094 43.488281 L 85.023438 43.546875 L 64.269531 49.015625 L 64.269531 55.320312 L 81.679688 50.734375 L 82.53125 50.507812 L 82.214844 51.332031 L 79.023438 59.605469 L 78.796875 59.664062 L 55.246094 65.867188 C 51.457031 67.507812 47.398438 70.023438 43.570312 72.5 C 43.023438 72.851562 42.484375 73.203125 41.964844 73.542969 L 41.871094 73.605469 C 40.6875 74.375 39.574219 75.101562 38.574219 75.722656 C 36.878906 76.785156 35.761719 77.398438 34.953125 77.71875 C 34.320312 77.964844 33.601562 78.089844 32.808594 78.089844 Z M 24.707031 74.730469 L 24.910156 74.859375 C 25.976562 75.515625 27.085938 76.085938 28.242188 76.566406 C 29.429688 77.058594 30.542969 77.386719 31.546875 77.539062 C 32.800781 77.730469 33.890625 77.648438 34.785156 77.296875 C 35.570312 76.992188 36.664062 76.386719 38.335938 75.34375 C 39.332031 74.71875 40.445312 73.996094 41.625 73.226562 L 41.71875 73.164062 C 42.253906 72.816406 42.789062 72.46875 43.328125 72.121094 C 47.175781 69.632812 51.261719 67.101562 55.082031 65.445312 L 55.097656 65.4375 L 55.117188 65.433594 L 78.683594 59.226562 L 81.796875 51.167969 L 63.820312 55.902344 L 63.820312 48.664062 L 84.910156 43.109375 L 88.023438 35.050781 L 63.824219 41.429688 L 63.824219 34.1875 L 91.128906 26.992188 L 94.027344 19.492188 L 93.902344 19.027344 L 65.257812 26.574219 L 65.5625 26.089844 C 66.632812 24.40625 67.246094 22.671875 67.390625 20.9375 C 67.453125 20.195312 67.410156 19.601562 67.363281 19.234375 C 67.347656 19.101562 67.324219 18.964844 67.296875 18.832031 L 67.148438 18.875 L 67.054688 18.734375 L 67.054688 18.730469 C 67.042969 18.738281 67.03125 18.746094 67.023438 18.75 L 66.996094 18.898438 L 66.867188 18.878906 L 66.855469 18.851562 L 66.839844 18.863281 C 66.484375 19.078125 66.105469 19.300781 65.707031 19.523438 C 64.433594 20.242188 63.132812 20.90625 61.804688 21.515625 C 59.972656 22.351562 58.226562 23.015625 56.605469 23.480469 C 54.578125 24.0625 52.75 24.339844 51.171875 24.304688 C 49.492188 24.269531 48.132812 24.136719 46.65625 23.980469 L 46.4375 23.957031 C 45.171875 23.824219 43.976562 23.699219 42.675781 23.671875 C 39.429688 23.601562 36.058594 24.207031 31.40625 25.691406 C 28.957031 26.472656 26.78125 27.652344 24.753906 29.304688 C 23.171875 30.59375 21.691406 32.171875 20.238281 34.121094 C 19.28125 35.40625 18.460938 36.671875 17.738281 37.792969 C 17.527344 38.113281 17.328125 38.425781 17.132812 38.722656 C 16.191406 40.15625 15.460938 41.152344 14.71875 41.691406 C 13.121094 42.847656 9.746094 45.367188 7.199219 47.273438 C 5.980469 48.1875 4.761719 49.101562 3.542969 50.015625 L 2.835938 50.550781 L 2.242188 50.996094 L 2.097656 51.105469 L 1.992188 51.183594 L 1.988281 51.179688 L 2.007812 51.316406 L 10.675781 48.554688 L 10.085938 49.1875 C 9.675781 49.625 9.277344 50.070312 8.882812 50.523438 C 7.789062 51.78125 5.949219 54.003906 3.402344 57.425781 L 3.253906 57.628906 L 3.117188 57.5 L 3.117188 57.59375 L 3.207031 57.722656 C 3.367188 57.945312 3.539062 58.179688 3.722656 58.414062 C 4.128906 58.929688 4.777344 59.695312 5.5625 60.429688 C 6.445312 61.25 7.316406 61.855469 8.152344 62.226562 C 9.1875 62.691406 10.171875 62.796875 11.082031 62.539062 L 11.109375 62.527344 L 11.128906 62.527344 C 11.550781 62.394531 11.953125 62.226562 12.34375 62.027344 L 12.449219 61.976562 L 12.554688 62.03125 C 14.539062 63.121094 16.515625 63.78125 18.429688 63.992188 L 18.429688 63.933594 L 18.414062 63.914062 C 18.113281 63.554688 17.820312 63.191406 17.535156 62.824219 C 16.894531 62.003906 16.289062 61.15625 15.722656 60.28125 L 15.601562 60.09375 L 15.789062 59.972656 L 16.414062 59.566406 L 16.507812 59.503906 L 19.832031 60.722656 L 19.460938 57.574219 L 22.753906 58.785156 L 22.347656 55.949219 L 22.492188 55.875 C 22.878906 55.675781 23.238281 55.5 23.585938 55.339844 L 26.980469 42.5 L 41.015625 32.921875 L 39.917969 35.6875 L 39.917969 35.695312 L 39.898438 35.734375 C 39.25 37.328125 38.414062 38.777344 37.417969 40.035156 C 36.636719 41.03125 35.742188 41.914062 34.738281 42.683594 C 34.066406 43.195312 33.351562 43.640625 32.589844 44.015625 C 32.324219 44.144531 32.050781 44.261719 31.773438 44.363281 L 31.726562 44.378906 L 31.710938 44.382812 L 29.480469 45.230469 L 29.289062 45.453125 L 29.222656 45.535156 C 28.519531 46.355469 28.011719 46.945312 27.609375 48.007812 C 27.136719 49.25 26.828125 51.058594 26.554688 54.253906 C 28.003906 53.890625 29.238281 53.855469 30.324219 54.148438 C 31.753906 54.535156 33.011719 55.234375 34.09375 56.246094 C 35.070312 57.15625 35.84375 58.21875 36.410156 59.425781 C 36.921875 60.511719 37.238281 61.664062 37.300781 62.683594 C 37.363281 63.683594 37.179688 64.503906 36.785156 64.992188 C 36.421875 65.441406 35.597656 66.195312 34.265625 67.300781 L 34.203125 67.355469 L 31.769531 67.355469 L 31.738281 69.3125 L 31.644531 69.402344 L 31.632812 69.40625 L 31.621094 69.417969 L 31.546875 69.472656 L 31.488281 69.519531 L 29.011719 69.519531 L 28.980469 71.445312 L 28.894531 71.511719 C 28.789062 71.59375 28.683594 71.671875 28.582031 71.75 L 28.507812 71.804688 L 28.390625 71.890625 L 28.332031 71.9375 L 28.25 71.9375 C 27.597656 71.9375 26.472656 71.765625 24.824219 70.960938 C 24.261719 70.6875 23.714844 70.378906 23.1875 70.039062 C 23.15625 70.019531 23.125 69.996094 23.089844 69.976562 L 23.058594 69.953125 C 23.058594 70.707031 23.324219 71.757812 23.828125 72.992188 C 24.035156 73.5 24.265625 73.996094 24.515625 74.488281 L 24.519531 74.492188 L 24.535156 74.527344 L 24.601562 74.660156 L 24.609375 74.664062 L 24.609375 74.667969 L 24.6875 74.714844 Z M 44.457031 53.542969 L 46.328125 48.683594 L 52.128906 47.15625 L 50.253906 52.015625 Z M 46.667969 49.0625 L 45.191406 52.882812 L 49.917969 51.636719 L 51.394531 47.816406 Z M 52.011719 51.921875 L 53.886719 47.0625 L 59.6875 45.535156 L 57.8125 50.390625 Z M 54.222656 47.4375 L 52.75 51.261719 L 57.476562 50.015625 L 58.949219 46.191406 Z M 46.449219 47.1875 L 48.324219 42.332031 L 54.121094 40.804688 L 52.25 45.660156 Z M 48.660156 42.710938 L 47.1875 46.527344 L 51.914062 45.28125 L 53.386719 41.464844 Z M 48.660156 42.710938 " fill-opacity="1" fill-rule="nonzero"/></svg>