<svg xmlns="http://www.w3.org/2000/svg" xmlns:xlink="http://www.w3.org/1999/xlink" width="128" zoomAndPan="magnify" viewBox="0 0 96 95.999999" height="128" preserveAspectRatio="xMidYMid meet" version="1.0"><defs><clipPath id="7e1e75b1a2"><path d="M 9 1.3125 L 87 1.3125 L 87 95 L 9 95 Z M 9 1.3125 " clip-rule="nonzero"/></clipPath></defs><g clip-path="url(#7e1e75b1a2)"><path fill="#ffffff" d="M 49.792969 1.324219 C 48.933594 1.265625 48.125 1.4375 47.363281 1.832031 C 46.601562 2.230469 45.996094 2.796875 45.550781 3.53125 L 10.632812 60.484375 C 10.402344 60.855469 10.230469 61.25 10.117188 61.667969 C 10 62.089844 9.941406 62.515625 9.945312 62.949219 C 9.949219 63.386719 10.011719 63.8125 10.132812 64.230469 C 10.257812 64.648438 10.433594 65.039062 10.667969 65.40625 L 27.859375 92.535156 C 28.132812 92.960938 28.464844 93.335938 28.859375 93.652344 C 29.253906 93.972656 29.6875 94.21875 30.164062 94.394531 C 30.640625 94.574219 31.132812 94.667969 31.636719 94.683594 C 32.144531 94.703125 32.640625 94.636719 33.125 94.492188 L 82.742188 79.605469 C 83.058594 79.507812 83.363281 79.382812 83.65625 79.21875 C 83.945312 79.058594 84.21875 78.871094 84.46875 78.652344 C 84.71875 78.429688 84.941406 78.1875 85.140625 77.921875 C 85.339844 77.652344 85.503906 77.371094 85.644531 77.066406 C 85.78125 76.761719 85.882812 76.449219 85.953125 76.125 C 86.023438 75.796875 86.054688 75.46875 86.054688 75.136719 C 86.054688 74.804688 86.015625 74.476562 85.945312 74.152344 C 85.875 73.824219 85.769531 73.511719 85.628906 73.210938 L 53.734375 4.019531 C 53.382812 3.234375 52.851562 2.601562 52.144531 2.117188 C 51.433594 1.632812 50.652344 1.367188 49.792969 1.324219 Z M 51.101562 18.792969 C 51.484375 18.75 51.839844 18.824219 52.171875 19.015625 C 52.5 19.210938 52.742188 19.484375 52.886719 19.839844 L 74.890625 70.746094 C 74.988281 70.976562 75.035156 71.214844 75.03125 71.464844 C 75.027344 71.710938 74.976562 71.949219 74.871094 72.175781 C 74.765625 72.402344 74.617188 72.597656 74.429688 72.757812 C 74.238281 72.921875 74.023438 73.039062 73.785156 73.109375 L 39.503906 83.339844 C 39.359375 83.382812 39.210938 83.40625 39.0625 83.414062 C 38.910156 83.417969 38.761719 83.402344 38.617188 83.367188 C 38.46875 83.335938 38.332031 83.285156 38.199219 83.214844 C 38.0625 83.144531 37.941406 83.058594 37.832031 82.957031 C 37.71875 82.855469 37.625 82.742188 37.542969 82.617188 C 37.460938 82.488281 37.398438 82.355469 37.351562 82.210938 C 37.304688 82.070312 37.273438 81.921875 37.265625 81.773438 C 37.257812 81.625 37.265625 81.476562 37.296875 81.328125 L 49.574219 20.1875 C 49.644531 19.808594 49.820312 19.492188 50.105469 19.234375 C 50.390625 18.976562 50.722656 18.828125 51.105469 18.792969 Z M 51.101562 18.792969 " fill-opacity="1" fill-rule="nonzero"/></g></svg>